<mxfile host="Electron" agent="Mozilla/5.0 (X11; Linux x86_64) AppleWebKit/537.36 (KHTML, like Gecko) draw.io/26.1.1 Chrome/132.0.6834.210 Electron/34.3.3 Safari/537.36" version="26.1.1" pages="2">
  <diagram name="Basic Concept" id="hSbnESBoARm0EhMqYZBG">
    <mxGraphModel dx="744" dy="1533" grid="1" gridSize="10" guides="1" tooltips="1" connect="1" arrows="1" fold="1" page="1" pageScale="1" pageWidth="850" pageHeight="1100" math="0" shadow="0">
      <root>
        <mxCell id="0" />
        <mxCell id="1" parent="0" />
        <mxCell id="Srsy9CeiOtQ16fyAPg-G-18" value="" style="rounded=1;whiteSpace=wrap;html=1;fillColor=none;dashed=1;" vertex="1" parent="1">
          <mxGeometry x="481" y="360" width="120" height="90" as="geometry" />
        </mxCell>
        <mxCell id="Srsy9CeiOtQ16fyAPg-G-5" value="" style="endArrow=none;html=1;rounded=0;" edge="1" parent="1">
          <mxGeometry width="50" height="50" relative="1" as="geometry">
            <mxPoint x="200" y="200" as="sourcePoint" />
            <mxPoint x="600" y="200" as="targetPoint" />
          </mxGeometry>
        </mxCell>
        <mxCell id="Srsy9CeiOtQ16fyAPg-G-6" value="" style="endArrow=none;html=1;rounded=0;" edge="1" parent="1">
          <mxGeometry width="50" height="50" relative="1" as="geometry">
            <mxPoint x="280" y="240" as="sourcePoint" />
            <mxPoint x="280" y="200" as="targetPoint" />
          </mxGeometry>
        </mxCell>
        <mxCell id="Srsy9CeiOtQ16fyAPg-G-2" value="Developer&lt;div&gt;Laptop&lt;/div&gt;" style="verticalLabelPosition=bottom;sketch=0;aspect=fixed;html=1;verticalAlign=top;strokeColor=none;align=center;outlineConnect=0;shape=mxgraph.citrix.laptop_1;" vertex="1" parent="1">
          <mxGeometry x="212" y="230" width="91" height="77" as="geometry" />
        </mxCell>
        <mxCell id="Srsy9CeiOtQ16fyAPg-G-7" value="" style="endArrow=none;html=1;rounded=0;" edge="1" parent="1">
          <mxGeometry width="50" height="50" relative="1" as="geometry">
            <mxPoint x="560" y="240" as="sourcePoint" />
            <mxPoint x="560" y="200" as="targetPoint" />
          </mxGeometry>
        </mxCell>
        <mxCell id="Srsy9CeiOtQ16fyAPg-G-1" value="DEV&lt;div&gt;Server&lt;/div&gt;" style="verticalLabelPosition=bottom;sketch=0;aspect=fixed;html=1;verticalAlign=top;strokeColor=none;align=center;outlineConnect=0;shape=mxgraph.citrix.tower_server;" vertex="1" parent="1">
          <mxGeometry x="524" y="230" width="65" height="85" as="geometry" />
        </mxCell>
        <mxCell id="Srsy9CeiOtQ16fyAPg-G-8" value="" style="endArrow=none;html=1;rounded=0;" edge="1" parent="1">
          <mxGeometry width="50" height="50" relative="1" as="geometry">
            <mxPoint x="410" y="200" as="sourcePoint" />
            <mxPoint x="410" y="160" as="targetPoint" />
          </mxGeometry>
        </mxCell>
        <mxCell id="Srsy9CeiOtQ16fyAPg-G-11" value="" style="endArrow=none;html=1;rounded=0;exitX=0;exitY=0.5;exitDx=0;exitDy=0;" edge="1" parent="1" source="Srsy9CeiOtQ16fyAPg-G-9">
          <mxGeometry width="50" height="50" relative="1" as="geometry">
            <mxPoint x="420" y="210" as="sourcePoint" />
            <mxPoint x="410" y="150" as="targetPoint" />
            <Array as="points">
              <mxPoint x="530" y="50" />
              <mxPoint x="460" y="130" />
            </Array>
          </mxGeometry>
        </mxCell>
        <mxCell id="Srsy9CeiOtQ16fyAPg-G-4" value="LAN" style="image;html=1;image=img/lib/clip_art/networking/Wireless_Router_N_128x128.png" vertex="1" parent="1">
          <mxGeometry x="370" y="90" width="80" height="80" as="geometry" />
        </mxCell>
        <mxCell id="Srsy9CeiOtQ16fyAPg-G-20" value="resolves&lt;div&gt;DNS names&lt;/div&gt;&lt;div&gt;to LAN&amp;nbsp;&lt;span style=&quot;background-color: light-dark(#ffffff, var(--ge-dark-color, #121212)); color: light-dark(rgb(0, 0, 0), rgb(255, 255, 255));&quot;&gt;IP&lt;/span&gt;&lt;/div&gt;&lt;div&gt;addresses&lt;/div&gt;" style="edgeStyle=orthogonalEdgeStyle;rounded=0;orthogonalLoop=1;jettySize=auto;html=1;dashed=1;" edge="1" parent="1" source="Srsy9CeiOtQ16fyAPg-G-12" target="Srsy9CeiOtQ16fyAPg-G-1">
          <mxGeometry x="-0.001" relative="1" as="geometry">
            <Array as="points">
              <mxPoint x="680" y="-45" />
              <mxPoint x="680" y="273" />
            </Array>
            <mxPoint as="offset" />
          </mxGeometry>
        </mxCell>
        <mxCell id="Srsy9CeiOtQ16fyAPg-G-12" value="AWS Cloud" style="points=[[0,0],[0.25,0],[0.5,0],[0.75,0],[1,0],[1,0.25],[1,0.5],[1,0.75],[1,1],[0.75,1],[0.5,1],[0.25,1],[0,1],[0,0.75],[0,0.5],[0,0.25]];outlineConnect=0;gradientColor=none;html=1;whiteSpace=wrap;fontSize=12;fontStyle=0;container=1;pointerEvents=0;collapsible=0;recursiveResize=0;shape=mxgraph.aws4.group;grIcon=mxgraph.aws4.group_aws_cloud_alt;strokeColor=#232F3E;fillColor=none;verticalAlign=top;align=left;spacingLeft=30;fontColor=#232F3E;dashed=0;" vertex="1" parent="1">
          <mxGeometry x="530" y="-90" width="110" height="90" as="geometry" />
        </mxCell>
        <mxCell id="Srsy9CeiOtQ16fyAPg-G-13" value="" style="sketch=0;points=[[0,0,0],[0.25,0,0],[0.5,0,0],[0.75,0,0],[1,0,0],[0,1,0],[0.25,1,0],[0.5,1,0],[0.75,1,0],[1,1,0],[0,0.25,0],[0,0.5,0],[0,0.75,0],[1,0.25,0],[1,0.5,0],[1,0.75,0]];outlineConnect=0;fontColor=#232F3E;fillColor=#8C4FFF;strokeColor=#ffffff;dashed=0;verticalLabelPosition=bottom;verticalAlign=top;align=center;html=1;fontSize=12;fontStyle=0;aspect=fixed;shape=mxgraph.aws4.resourceIcon;resIcon=mxgraph.aws4.route_53;" vertex="1" parent="Srsy9CeiOtQ16fyAPg-G-12">
          <mxGeometry x="34.620000000000005" y="34.37" width="40.75" height="40.75" as="geometry" />
        </mxCell>
        <mxCell id="Srsy9CeiOtQ16fyAPg-G-19" value="validates&lt;div&gt;domain&lt;/div&gt;" style="edgeStyle=orthogonalEdgeStyle;rounded=0;orthogonalLoop=1;jettySize=auto;html=1;entryX=0;entryY=0.5;entryDx=0;entryDy=0;dashed=1;" edge="1" parent="1" source="Srsy9CeiOtQ16fyAPg-G-14" target="Srsy9CeiOtQ16fyAPg-G-12">
          <mxGeometry relative="1" as="geometry" />
        </mxCell>
        <mxCell id="Srsy9CeiOtQ16fyAPg-G-14" value="" style="shape=image;verticalLabelPosition=bottom;labelBackgroundColor=default;verticalAlign=top;aspect=fixed;imageAspect=0;image=data:image/png,iVBORw0KGgoAAAANSUhEUgAAAoAAAAIQCAYAAAARq99gAABEPElEQVR4AezBgQAAAADDoPtTX2EA1SoAAAAAAAAAAAAAAAAAAAAAAAAAAAAAAAAAAAAAAAAAAAAAAAAAAAAAAAAAAAAAAAAAAAAAAAAAAAAAAAAAAAAAAAAAAAAAAAAAAAAAAAAAAAAAAAAAAAAAAAAAAAAAAAAAAAAAgLN3j1GWJWkXx3dzbNu2bdu2bbsxtmeaOZUnzs2eO7Zt21bbVtV+96qsXvmuRnVV3nOP8v/hl9EoPlWxcmfgCX9D27vS9T3RvVzr/hlv6QWdNwQM1en9RwAAsKjLudKeLjokfConxldc6y6hoQFO/R8AAEClF7nohPCZqvRpT3WeEDAU//9fAABA0QfCW+n3nuiCoSEATvkHAABQ9ILwKn3L39D2IaDnNn4AAADrdAkXHRtetVpPCwE9t/EDAACo9H4XeUb7eqrtQn0GUAQAAHbSti7aLzyziW4TAvqMIgAAUHT1cCMqvSoE9BlFAACg6M4NBsDdQkCfUQQAAIoeGG7Ih0NAn1EEAABqPYgACAIgAAAzIwACBEAAAAiAAAEQAAACIEAABACAAAgQAAEAIAACBEAAAAiAAAEQAAACIEAABACAAAgQAAEAIAACFAEAAAIgCIAAAPQMARAgAAIAQAAECIAAABAAAQIgAAAEQIAACAAAARCgAAAAEACbBAIgAAAEQIAACAAAARAgAAIAQAAECIAAABAAAQIgAAAEQIAACAAAARAgAAIArG0yXj0e7lpP3qjSnbxOFwjh1AiArVnUOVzpVq71hHhyPNZFN/JUO4bQHooAAOOxoys930V/CZ+OE13rE6508xBWEADnbFGXzrh7HBk+HYe41ju9pIuHMH8UAQDGoOha8ZvwFtgQH/RuOnsIBMC5Wl7lOyK8BQ6Px4Q2B2wBAwBqXTfjweGtUunnzspMaM0jADbvG9retd6zivptcK3nhTA/cj1YAICs4rnob+FVOsiVbhta0wiAzZrq/Bm/El6lDa51l9CpgQAIACh6fXhGJ7jWE0JrGAGwKRNdw5X+2kAd/+HdtEMIjaMAgwUAU+3oooPCjai025r9hEsAbMrd4vBwIyo9IITmydUgAQAmupeL3LCveKrzh9YSAmADrYcqvdxF68MN2ie0AlwCAQDsHG5cpb8623ihNaPogQTAVVrQWV1rnYs8B38MrQABEACwEJ6TI+KeoTWh1h0brN0HQmvEJeOnc/57qBUgAAIA9grP0QZX2snWNqFRW9TVGqtbrVeGRm+im7lov/AcHRZaAQIgAGDXcAv2GX3T6J20rYv2DTfgFqGRe3gcG56zX4ZOAQIgAKDSfTO6FbV+kvGSoRF7d3hG//FU24VGajtXeruL3JK9QqcAARAAMNXZMh4abkWlA13r1qFRWtLFXXRMeNXG3E+x6NzxmXBrat0xhObJNQBgsCq90UVuTaXjR/1Wa6VnzhBWvjza1b+Jrupaf3KRW/QbZ2s+1DhQgEEDgOWn4P4SblWl3Zy3XkOjU/SOVdTjV6Ptn1jrLi46LNyi9Zs7Swm2gAEAE1014/7hln3Jtc4XGp1Kz9yK7eB9PNU5Q6NT6TkuOjncog3x9NDmgQAIALhW/Dvcqlp/cqWrhEZnnS7hWu85g1Ynx8VnRnsmMs2dXbQYbtlJrvW0EDgDCADYEhNd0EXfCLfsSFe6d2iUcg7Ni7qaa91l4+9zUTeMc4RGafkyzA/DLTuESx8EQADAaky1oyvt6SK37GTXeklowLCk67noX+NfSYZcjQ4AoNaTXXRiuGUTT3W20MCg1kNXzj226vOe6jyh1oACjBYA1Lq1Kx3oIrfsZ17SpUIDAGsbV9rJRe7Au2j10jTawAAA9tEVXPTbcMv+51o3DvUY9tK5XPTJcMuOc6VHh+YBbAEDAIrOHZ/t5JN8rQeFeghLuqyL/hBu2X9c6waheQKXQAAA2WZr/dWQiJNc6cGhHsGiLu2iv4db9n0v6KKhboEiAMBaUvSQOKb15+MWdbVQ97Dpi4HvcEGISyAAgLWk6Ebx33CLvhLqAVR6XOstgio9P9QtcAYQAHAxF/0g3JqJrhHqGIp+Fm7JEZ7oXqF+AUUAgLUqz3251roWt4JfFeoUrugit+QPXqcrh/oHFAEA1rqiF7T04P8nQ53CQ8It+KIXdN5QL4ECBACg1l1cdFh4jr4f6hAqPb+Fld63eKrtQv0FeQoAQFS6imv9yUWek++FOoRaL5xz38dHhUAfQADA0F6GqPRpF3kOqlCHUOlhGT0H+3pRNwlhECjAqQAAptrOtd7mIjeq1vNCHcJEV3WRG/Zjr9MlQhj6JRAAAJZXi45t7EWQJV081DFU+nmD5/2WvJvOHsKgUIDNAAAU3TT2bSAolFAv4NENhL/18eIQhkkumwEAwJIunvFH4VU6overf+t0AVe6uYsev+nN5I/H1+On8efYN46I4+Kg+Fv8YtOTal/I+P54jmvdxYu6nHfStqHeKvp8eJWOdK37hDDaSyAAAMzUNPpgV7pVqDesbTzRtTcGtqJPxUHhhh0XP4g3uNKderdNOtEFXfS78Fap9Ne19KILL4EAAGBt46IXb0XT6B84q2Ghzk11tk1nGqcZD8zoVlU6PuO34mVe1KVDnVte2f1xeAt9zLXOF8JaWwEEAKDSrVz03fAZ+Es8qRfboLVu4KJ3xcHhnlgf33WtJzttd0KdmWq7TSuh/wqfgd874Tk0HpArAABWYVFXc9FT403xjo1BYqKb2dom1JmpzumiF8Q/wz13TOzlSlcJdSZhPeOt4jmu9c6Mb8n47LjBSpAfEVCAkQAAFJ1702rWfuGBWR+fca0bhAC2gAEAOLPXS4peH0eGB25DfDKuFTo1gDYwAABMdK+V82ujclK8K84dAgiAAABUumLGL4RH7n+u9OgQsDYvgQAAkAsJLnppnBBeQz7rqS4UAppAEQAAw7DcvPjz4TXqANe6YwgY/yUQAAAmuo2L/hde4052pZ1ozYJxt4EBAKDSi07z+gg+P74LIuASCAAA1jYZ3xzG6fq1l3TxELCVKEAPAQCm2tFFdXiz8HfXulIIGO4ZQAAAlp9y+1IYW2RfV7pOCBheGxgAAJZX/r4YxlY53BNdOwRsAQrQEwCA5R5/Hw5jVf7rWpcJAcPYAgYAoOhd4Zngd57q/CGg342gAQCotJOLjEZ8z1OdLQT0MwACAFDpHi7aEEZDKu0ZAvp3CQQAgCVdykUHh9GwWo8KAf05AwgAwG7awUXfC88FjvairhY6FYACdAQAUOntLvIcodKvOA+IfpwBBACg6BatnfvDm0JAd28BAwDwDW2f8ZfhVuCkuFYI6CoAAgDwgnCr8G1b24QghOyWAABQ6WIuOiLcMtR6RAgICtAiAEBRHe4E9vNU5wwBFKEdAIBKV3TRyeHO4AUhQC6tAABgIdwp7EdbGAQFaAEAYEmXddGJ4YH4rSu9P+MzXOuOrnT9jJffaFHXdKWbu+gx8fr4hisdn9ED8fTQfIEVQAAAlsOUe63Sz+M5cbHQVpnqbBnv61qfcNEJ4R77p3fTDqE1CxRgzgAACzqvi44L91KtL3ui24Qasfy+8bvj2B6H3YeF1i7IFQAAc/UUF7mH/uZadw/NRdEl4yPhHvpCCGwBAwAwL98N98zurV2GKHpkHBXukZNXtrrBCiAAoFm76exe0vVcdE/XelCnJrqXF3VDF5071IpKV+zZm78nuNajQq2a6Kqu9Nc13BLmkp7olq70gM7nQdE9N87JzE3OAAIAmlXpVi76VE/PgSUE6cuudI/QXNXapUe/76Nc6U6hTkx0ERf9LNwLlX419y9+il4cvwn30LHxKVe6FSuAAIDZTHVOF+0THogveaILhuai6HfhzlU63rVuF+rUVOd30W97FAKvEpqDW7nov+GB2Gd1r6TQBxAAUOt8LvpFeGD+7iVdKtSoShfryfbvhnhgqCcuGf8bbU/A5W3WE8ID80tnDvMWMABgy021XcYvu8iDVOnnjZ+JqvWInvze3hLqlVq3dtFJ4Y59JNSgG8Wx4UHKHHbmMiuAAIAtU/Sk8KBVelWoQXv2JNjuEOqdop3DHTvYO2nbUAO23VjvIg9arSewAnjmAAD5xOeif4cH7kjvpXOFGlH0j3CH1nuim4V66d06i4v+GO5UreuGZlbpAS7yCPznzFcBWQEEAKS9hYs8CpUeHJpZ0SXDHftQqNdq3acHf+bPCc2saBoehczp0JjN+gMAAIpeMaIA+P5QA+7Ug0bHVwn1mrVND1rDfDDUgAPCo1DrlWwBbx4AoOgDIwqAnw7NrOgZ4Q59PDQQjwx36BuhmUy1Y4c3vjsIxTwFBwCotXdGj8SXGqrJezrewrtXaBCmOpuLDg93ZN/QTHJ2NKNH5EMEwM0DANR6XUaPxEJoVh23xDl05ebvQBQthjt07tCMjgqPQuY0W8CbBwAoemB4FGo9u6Ga/HNA279sAy/qhqGZFH07PBIPZAVw8wAAy8+/HRceuA1e0mVDMys6erghtgPrdImOg//dQzOp9HwXeQSOW2mHNF5N/CAAgEpvH8EFkKXQzKbartMLAZVuGxqcokMG3f5nqvO46ODwoNV6G42gAQBbZp0usPK+6yAd7kVdLjSzBIGOg+zFQoNT9P0Oa/bEUAOe4iIP2P+cuRwau6Z+IABArRsP9B3Uk5vYAozovAn0hpWnzQam6GPhTtR6XqgRRbuHB+hYZw6HWAEEAGydJV3PRf8KD8QRcc9QYxZ1tYzuyFGhgVoId+TVoUZY27jSTgPrC/g/L+omobWi6R8QADDV+V3rbT2/GHKia+3hJV081KhaN+jw93VAaKDeG+7Im0KNqnXrlW3t3jpu41zNnA3NjreAAQCLOocrPcC1dnHRQkw7VWtdvM6VHuYFnTc0F4u6oYvckf1Dg1TrPSMKgCtqXSnjs+IdMYlpxxacORn3d+Zo6P/YuwvoOI48j+M/hZmZmdkby1U9crS8oWVlmXcdstRVsgN3gadlZmZmZmZmZubdMJqtuX9P1Ae5xNZI0z3dPV+993mzGGvKo9F3qruq5o8ZQAAACEACEOwDCAAYKAQgAYj6ByAAAAQgAQgCEAAAApAARP0DEAAAApAABAEIAAABSACCAAQAgAAkAEEAAgBAABKAIAABAPVHABKAIAABACAACUAQgAAAEIAEIAhAAAAIQAIQBCAAoO4IQAIQBCAAAAQgAQgCEADQJFqwZBu59Cz5cJl8fLE9vrob29/1gjcvvP9Dv9IPp9zv4V/Ivoc6OvQ+j/twv8btoHs//oNdf88ufaU9TikJj5CLuxjVCBgEAEDH8Ph+8vE18mGFaQNdWGveq9bkEUY1ADEIAAAfHtWD8APWyIVgVG0Y9AEAAPhwWW8jAIgvNkJ1MQCDDACSeI58mC4gAoBxI1QTAzCoAGA07GSP1xIqBcFqDU8cboTqYQAGFQD49OmFBgDgwruNwD2AAIAqkIbkw1+KjwCwOnj5HkaoFgZgEAFAa/LEcgIASJ9khGphAAYRALh0rKQAAF5h1G9gEQgAIEmXEiblQPycEdgGBkBTjIzvriScLh8eqyS9SD69REl8jNyE1+jUVkYVBfv7KikAgO8YgRlAAHU2PL5DJ/R8+K5Zb9p3YoX5kFx6b6OKAQEIApAArB0XT1OSPrNwdiC6kQEwNrapXLxUPl43h18An9bI+DFGFQECEAQgAVg7SfiPUl60Cy/c1QgYeMPpnvLh8/M9I9Q8yqgCUHwAAgQgAUgAArXV2cMr/Ma0e2DaXGwEAhAEIAhAArCKgOw2CB++W8DpAA8zQh8VH4AAAUgAEoBALfn41IJ+vm5Wkh5phP4oPwBBAIIAJACrD1gUDpJPVzZybzAUE4AAAUgAEoAAs3+z4IzAPYAgAEEAEoBAFfj0lyX8nH3QCAQgCEAQgAQgqoFtX9olWMV+m31SfgCCAAQBSAACldaaWFDiOaH3MgL3AIIABAFIAPYTkEycUWIAPssIBCAIQBCABGA/AUkcKe2XgwvvNgL7AIIABAFIAKJ+WvFsJeGzhfHxNSXODh1ZYgB+0QgEIAhAEIAEIOrHxwsKfk3+xKgULm6d7wFYgp8ZgVXAIABBABKA/QMCMPcp0y7BL4xAAIIABAFIAPYbCMAknlfSIpDvGYFFICAAQQASgP0GAvD08S3t8c+mXbAvG4EZQBCAIAAJwH4DAZhx8eEl/Kx92AgEIAhAEIAEYP+BAMw9v+Dn9SIjEIAgAEEAEoCoCgJwbGzTmUhrFyKJ0ahsIABBANYdAUgAggAsnkvHCrkn0PZPNCoVCEAQgLNAABKAAAGYOXZqCyXhieaz8mFFT57XqRftZVQqNDAAQQCCACQAQQAWb3RqKyXxLvLhTHt8jJLwCPn0m109Jxf/YFQ+ND8AQQCCACQAQQAWb3TZbva4prvnFN9qBPYBBAEIApAARB0RgEl4StfPyaVjRuUDAQgCkACcHwIQIACTpfvIhVu6fD4rNHrBdkblAwEIApAAnDsCECAAR6c2kwtf7P75xPcZgUvAFTdt/ioXvmWPH7LHT9z2sxivG8zxIAAJQAIQIAClIfn05XN6Pi6eZoRKLgJBEr6mJF2qxZP7G/0/0pBa6bCS9JlZIA7KuBCABCABCLAKeDN7fMUcn8v3jVDBk0Dwi67vTc22R3IxlQ/XM34EIAFIACK3YMnmGp44/LYZn/TeZkw+PFY+Lun862wj4EXxHmpNnqjh8R2MamiwAtBmRezxK/OYXXmgUWmyX9Ct83fusH9tNODuOADx6uz9ymhO7F7YmdhpDxYCkAAkADEadpJLz5KPz5IPnzG/N2u7HPurZ+63eb2S9AkaGT9G0pCq/TUYAdj5+41Pzhd8zE36BaOe6sxGpqfKh/Pl44uVpJ+UDz8z/zLr7/i+rs49XP/I9i407+xcynPpuUomF8nFrQfqEjDWy8clRvNlIbiNkvQDjCkBSAASgM23KBzdiYIk/Dj/ZVuAa5Wkb89mDEtbOXr6+JZqxUNmLUmvLPg1+avsz5m3bmbAhtM95SeO62z07MM7enD6x1oNpycYzUs2S+PTxTNj/vk8SHtorfmReb18+shsHIwahQDMmfQSo97IX5/hy4wrAUgAEoDN0wmDcLH5UR/erFead2aXjI2KMnPKRbtpuho3F95fqV+0btlR9vg8+fDv8leCpj+YueH/pEbdA4i3GfVY/h75N8aXACQACcD666x6C6Py4V1mdSW2Z3DhI3JxoVHPEYC9DsBPSVObGHUtuw3AhXfnM8z9NjPbPVnrc4wJwMxN8sv3MCpG+kjGmAAkAAnAWpu5v+qrFd6n6y09v0xHAPYyAH8qF3cx6kp2z6EPr8jDr4JWKQkv0/D4fkZ1QgAa+11iVBhpSD5+jwAkAAlAArB+FoWDZmb8pk274q6XCxf2bMEIAdirAPydRsLeRl1x8QFK0n/WY1zTlfb4knw2qRYIwNVacMmORoXy4VEEIAFIABKA9eLSR2eXSGr4qf6z2WxgJWYACcAf5Rvpztro1FbZSt78Q0e9xOvMEk4CqQEXPmFUsHwWe40hAEEAEoCVt2v+i7/G/qpW2jKam3kHIAFo/9+uV2xnl4l9+EYDxvm9Ghnf3aiqmAGMFxiVIT8qkQAEAUgAVpeLx8uHPzXmEk+SPsSoe/MIQALwViXxPKOuZJeJffhpc2aY4h+yLZKMKogATNJ7GpXCh1cbAhAEIAFYUS7eRz7c0MCD3CeNukYAziEA40ez+0aNupJtvOzDtxs4y3RdVc88JgDjsUal8GHKEIAgAAnACspmbHxY1+DVfk806g4B2EUAfkNu4u5GXZOG5MOHTbuh/pqdDmFUJQTg0n2MStG53EwAggAkAKvGhcfn22w02Bq1wqjRrBGAGw5AF24xb1IrHTaaMx/GTbuh/pXdVsEMYCV/Do4wKkGfXuMEIAhAApD4y13VxeXJOw5AAvAX8vE12RYtPTkvd/HSg+XDzQ29x+yf+WXGSuIS8IhRObLfWQQgCEACsCp8uFt+2XeAfENjY5sabQwBaNyEl08fZE7V8PgORj3lw4dMu4H+IhcPM6omAtCMG5XkLYYABAFIAFZAtjebD1cN6P5fwWgjCMDCTSzI9/prmD/Jjx9qVGnsA/huo1L48BtDAPYZCEAC8NipLeTTbw7wm9GtGp443GgDCMCiufCRBo7vb/ONryuPGcCb89sYCmU/b9V4vgQgCEAC0IUrSt+KxcWfd+4d8+Eyc35nfz4X7i8fH2eWmWeZj8qHq0v69P8RZgD7aHTZbvJhrWmXbMXMsW3t3kt/ma8srQUCMHO+UcFeyzj3PwBBABKArXiIfFhRSvT59ONy6VhX42j353VuzvbhbYUfn+QmvNGdIACL5NJzyzmWLX1554NG9rr/3/d+LliyuYbH95OP95JPLzFfmOfr7Wf58YO1QQBm/lTwLOBh8mE149z/AAQBSAD68LESxu5LPYmMJB5b6KVqF77IDGADL/+6cEsWN13vvZcdQ+fCcvnwx67PO86PfasPAjCXhOca9ZymNsneCxnj/gcgCEAC0KX3LnbM0pWdy7n2xmfUE6ePbykf3lHg97zY6A4QgEXy4a8FPb/r5/38stlBFy6c3SKp+L0sHI1qhwDMrZvZ1kg95cOLGFsCsCIIQAKw0APJ/2FOMuq57BdyEj5b0Pf9tg38udtkK1Vnzc4WLXyBgf0585Vf8uobu/+vFgf8t87fOdvoegMzjd/SaNjJqJb+dwBiRfYB2WjepCG58AzGlAAkAAnAanBxYYFjdU2+qrYwLu6bze4UMWvZsxkcv3yPgl+TPzFqAFfUGBWyV2E2O3T7M7KT8LX8z6qt2wcg1iqJcV5XMLLfGT6+j7EkAAlAArAyCnxTms4/ORcuiY8p5p6xmBKAJXLxPkV9EDEqhB0b1pmBze8dHb1gO6Mau/MAxFeMujYyfow9/pvxIwAJQAKwOmz2rLgTP9I3GJVCGpIPPy1g0cC3jOaNAJydJJ5T2GU8aUhFfWWrfF18ab64pObuPABxa/EfbAhAEIAEYL33/ft36TfAFzMLON2TzXsJwNl6bFFjNHOfozALBCABSAA2FgFIAOZbEfyxpCPVimcLQvL7sXornTCah74HIDOAxoVPzPKsZxCABCAB2GAEIAG4KN6joPFZpeTi7Y1K58MHi9i70Gh+CMBZScLpBY/TW2axQAMEIAFIADYYAUgA+vR5BY3Pp4z6woULC3g+qzU6tZXRnBGA3dws3y5Ukv7zthM+lh1odAdAABKABGCjEYAE4A8K2j3/KUZ9UdSs5qKQGM0ZATg7x05tUeI5wNPy8ev2OH77c3pBABKABGAzEYAEYLZAw4f1Bd1rdX+jvhhOTyjoOS1nFXBpvmvaffCb21auh8fme1cOLAKQACQAG4oAJAB9vF+B4/MZJfE9fVHYecbxfUZzRgB2IT61GufApv+87XWVLpWfOE7SkAbliwAkAAnAxiIAmQG8tKvni1+xCKQkbvLkir4Grpr5IPC4mp7xy1nABCABCAKQGcDw2m6eL9KV85oBIgC7k4SvVf1oMPPB7Bd7fjxYoxCABCAB2FQEIDOA4YtdPmeMhL2N5oQA7E4ycUZtXhcu/lw+PrQOIUgAEoAEIAhAZgD/YtooaSUwATgH8a01e438Qi59dJU3m2YjaAKQAAQBSADe1OVzRhLPMZoTArB79jOWLcSo4e0CP6jesXMcBUcAEoAgAAlAaUg+rOv2OSM+jlXAJXPxAfY4bdo1s0Y+fXq+gXjN3HkAYlqnj29p1BUfH8rY9T8AQQASgC5uPYfnDBcuZB/APkjCU2q8eOiXWhSONqoTAnADknisUVd8mGLs+h+AIAAJwNFlu83pOeNitoEpXT5j/QrTrqkb5eO9jGqDANyA9HKjWcpfvz9l3PofgCAACcDhdM85PGe4+GSjOSAAexKB8ak1vRycWWHuZlQLBOCGXNvV+z+XfwlAApAArIzk4u3n9JzxNGYA+8ylZ9njVaZdQzfLLTvKqOI2GoCIn5vVvYDZ5X8frme8CEACkACsBtumgjcdArDWq4NdfF1+lnXN/CS7B5eTQBrhG3LxsA2M4X2z2ULGiQAkAAnAavHpSt54CMBaGxk/xh7fZdbUaxFBeIpRtRGAs7TGvMM8Sq20pSS9p1xMK3ySDQEIApAADNeYNgjA2nNxX7lwhZLw4/rcD7jsQKPKIgBBADYWAUgA/si0QQA2iouH2ePFMzMwa6u7oCh9gVFlEYAgAJuKACQA4/sKHJ/fKwmfbRw2gq6TfLHTmZ3Y8ukPKhaE12vBkm2MKokABAHYUAQgAejicwrcKPU9RuAouEoZvWA7JZN3lQ+XyadfsMfVpt03tkjAqKIIQBCAzUQAEoDpuQWOz1WShsRX/kUAVjYIOys132JuNu2SvYJ9AMsGAhAEIDOACwsdn+H0BCN0lBGAPzXCHGVn9rbi2dnsdYmrir9PAJYLBCAIQAJwdGoz+XBjcWOUPs8IucID8HdGPYBWPMQev1LC2dK3VHamnAAEAdhQBCABmPHpxwscoxvyMRLKCMB/GfUE8g9IHzTtQp160V5GlUMAggBsMAKQALQ3+Ubf45SkR1ZmhmVkfPfCN6RdsGRzox5BdtSXD7827cK0Jo8wqhwCEARgoxGABOCRBR+uP92/lY7xLp0Nd134YiV+yQ6P71D4a9JOxjBqvCQ+Rn78UKPihceadmEWhVOMKocARP0DEARgQVw8LIvAitNGFX+v09Wln3qQBZ8PfzdtY9KV5nIdO7WFUR/klxTbhbIwMmqwPMimzT9KWGiUv5baBTqJRSDoLQIQBCAsOow2yKKhhFj+Q2kzNlkUJOk/N7BS1hn1R+HnL3/MqLGSeI49rjPtGTfKxQcYFWiXQv/OFi892KhyCEA0PABBABKA2WkEPtxg2gWzPyM+1KgwLn10trJyI9/HeiXhZdklWaNSWQgXPMZrlcRjjRrHtmi5k+1Zps2zs/v1jHrOZugG8lYSAhAND0AQgASgmTnjtl2O+FYNp3sa9Uw2i5KkH+jye/mbXLi/UWl8+GoJ4/t1ubi1UWMsiveYxezpz+TiQqPeClcU+Pe1SmNjmxpVDgGIxgcgCEAC0ISd5MP1pl2SG+TCM7R4cn+jObMtNLJzXud1aTULx2TpPkaFs/gtaXy/JBf3NZo1TW2S3yNZKa20lc/qzsJ6ufCm/HU1b630APlwlWkXI/2BUSURgBiEAAQBSAAaHy4z7ZKtkwvvl08fOcuFIvkB/w82bzErehWk5vwsgowK49NLShzbFdmlbnN6duSZ0e11wtdmQTv/Ox/+ms+gVYZPT53jZuUr5NJXzutyeGvyRPnwC9MujMWqUSURgBiQAAQBSABaJOQrZ/voL3LhE52ZsiS80B6fJR9eIhdfZ4+fMn8004VePi3yHjofzuzj2N5k/mh+n7nDWTU34Y2qIR4vH66Z7zZE5qud8Lag22jg2+XYzhj49A3yYXUJl+svMKokAhCDEoAgAAlAk4QHinFb0wlPOxvWqIfyS4rtynLxNKM+y/en/FcRs6LmhzP3i776ttsHwrM7HzCS8Nk8OEuyPr/1oJoIQAxOAIIAJAAz+WIK/FZu4u5GPSMN5fdaVlL+fPsnj+Q/mXbDfdWoItgHEAQgCEACcOk+eaSggJNMXPhihWcA72PUR/vOXKJuN198nBGXgIFqBCAIQAIw49Kz5MN6xjD9Zs/P1/Xp5ZV9vrbXnlFfZGclu/jzAXlt/any5zYTgBjAAAQBSABmXHzygI/fPzQ8vp9RD+VnFLcrKQkPNCpd6/yd5cOP+v38mf1jBhAEIAhAAjBbMenjRwd07G7NQs2oCJWNnSSeY1SqE5Zvm2+QPRCS8LV8NXKlEYAY0AAEAUgAms6JEj58fsDGbZWScLpRcdInVDROHmFUKh8+bNoDwYVb8jOxK48AxOAGIAhAAtDkMzRfHpT4K+U+uOzcWh9+U8Hn/1ijUiXxWHv88yAsKMoDuxZ8OL+kcQE+b1QiEIAEYFebRLvwkYaP1w1qhVGjUvh4rwrOAD7RqHQjYW/5+L2GLyh6ulFtuPiAksYGeJtRqUAAEoBdkIaUxP+UD+saOFY/08j4MUal8uGNFRuH8436wo74y8ejgV6d3/dXG8MTh5cyNoD9zjZCxdTvmy4sAAnAnA93y4+Ma4TsFIgFS7Yx6oNtlIQfV2iWaqICM0/3kQ9/a9CK32dJGlIdv3z4VeHjA+THb6JaavhNFxqABGAu7CQfXmumazw+N8rFhxv11akX7ZXNQFZkTCaN+s7FXezx9fWebY7XKUkfYlRbLiwvdIwAF75lhAqq5TddfAASgCafDazhLMG0eUt235lRJQyne8qHb1dgBvASo8pYFI5WEt9Tuw8aSfpJLZ7c36jG8l0A/lLYOAH5fdeonlp+0wRgeQGY7xfo0jH58Lvqj0n6A7XSllHlZCdD+PC0/s56pZcbVY6bPFkuvFs+rDbtCvtNvoq8MRaFRD6s6vlYAUl4rhGKxz2ABGCxjp3aYmYRwU+qN+OXfqFzOW5sbFOjSnPLjpqZ9Wr3wZRRZXVuPYhLKriR9g/l0kfnx7s1jk8fKR/W9HC8gHdV/P0YNfymCwtAArALyeSizuIKH27s4/O/qvMJszV5hFHt2BjOhODaEsfsMqNacHGhXHiGfPipaffBNUrCy+zRGTWei6f1YHEOsNpcVszCKL748sv3UGvyRHSor7JZQTdxd/n0eeaXBb+xrDPfVhKeokUhyeO39rJ7yXxcJh++Ydb3eMyuNh9Wki7Ntv0wqqXFSw+WD+PmXeaPpl2QXykJL7THu+WzfQNmm+w+0Tnc7gHcYN6Y/awaofoYAPRWFucuPasTaT58yvzRrJ3jcW0/7vzCT9IrlYQHauGFuxo13K6dbVJcuEI+vi8LXvOPjSySWGH+2jmD1sarE+NJfIyS9EijRhoZ310+nGkulk9fbj4uH342yxnpW81fzFfk0zd0rijYmJtdjGYg2zfTx4fKhdCJwtsDkvSiznuNzR7X8AMTGAQULpupa8VDOqvBXDpmHm3O/Z83kniBPT6pczJBEkeymarb3TsCaUit83fW6LLdOmOZfcq2f38ns6CwmazO+NhY/e/x6qx6Je4E/Be7daARQRTFcfiggAhBAj1AglXtzAwWoRBgXyFUdu4gCQh6iZ6td9nuA+zGysixH74/wOXi+IEPAAAQgAAACEAAAAQgAAACEAAAAQgAgAAEAEAAAgAgAAEAEIAAAAhAAAAEIAAAAhAAgPQBOHs7jnk5Z4Pr55MqAAC2qpNPV96jLWs2Gb+qAADYqk4+AlAAAgACEAEIAAhAAQgAIAAFIACAABSAAEAeAhABCAAIwL0hAAEAAYgABAAEoAAEABCAAhAAQAAKQACYTFfuoxmWk1l8HFTBjurkIwAFIABJlO9qPZnF01EV7KhONgJQAAIgAAWgAEQAAiAAEYACEAAEIAJQAAKAAEQACkAAEIAJCUAEIAACEAEoAAFAACIABSAACEAE4O+Gz6jvpNOMd1X8PwAQgAIwWwBevZ5W8QcAgACcngAUgAAgABGAAhAABCACUAACgADMTwAKQAAQgAhAAQgAAhABKAABQAAiAJMHIN3LWbSri+iHPvrxIZphGfPxNtrSxM1wufeHYfZ4GP1qFu34w949gEmOfW0Af9e2bZvdSWrmW9u2vdt9b3r4/bm2bdu2bdu2Per839Rkvd0p5Nwk1Wee5/fUzKNJVaWSN+fee+4u8O3+COw5/Pvt/PuL9C7//iVfv6KIhif/fgOBfYavd8CzZ8ML9+G/d0K7XRLYe0xCHzdm9Zzzzc7w7X/paDoXQXjpr3x7Cg1Gv45pCH2ZUhoAm6cBUAOgCsKl4dt/0jUIzEc1fp/vIrC3McwciKBreazeMR6hJS2399jwOleEHx4D3z5GwyjK0Bf8HK+AH+4Bb8D8hD5hob3HRWA3gG+vpq/r+LwWJ/wNpZLzKlwIvtmQr/+AHx6cPDyMfqDwzUWj/20Ojx/EaIv4ga50gUcDoAZADYAlEtjV46qRCM9uTqgZq3zJd/4iRRn4gS6DZ1ZtgYpWEvrMWtXqHgMaRQ69n1QVN4tvZoRMtNsF4tAuhlViQqq2jknhh/vBt59QVLf+e81BSMQV2Qnh2RvjY3Aiz+tYEPZz8h79cHtCKcTXm4ppS86pJ2gERQ16FYE9vjrysejAiQjOMKzW9x3ZHymSY+5s+jziNZTQp5TyoDUAyvPNDWKfrRe+SUhVCees7m2cVLGEvA3P7BqHKEKpBGY++HZveoeiAvi4WsFgYCc0p6td+Fi3JvQoPh9Y5UwPfikqu09B+APPXuLuOzGdhHzYUygSllJlNSfIhc9wE0INkgcJMwS+/ZAiAcPo4ngqDEGcby+kqKUE4W6EvqSkB64BsKUDYHyx9MxJSJ6OHXkxrggSCi8eAgrMTcW9mJqf4iHopn5DeQbAipkVgb0/g/+jGxtvPBbhD3iTdvhdPERwDhgjrg5TJOwxQi8eo0jIYEKvWJlLqn1fUeTIU7QdknNPgAZAARoANQBqAPTDVXKsaHVXgwsXThAKhxW/ZIFBN0Ul8AMCexiWGzA1oS75BcCNUub41eNbN8EkhRfOTXCKw5yFuGnnGQCDzjXiEQaKcvJydVFcHMaz/qMBUAOgBsCsaABMKgZ7FyTc3IPl7OSEQuBwZDJ89DNFJfQp/HBdQo1yCYDJqt5RFGXkXcLfC7d3eGP7B8EpLrhy8N5+TPmd5hMAlxoyWbECknkonlNLyIwGQA2AGgAzowHQt0dQVCDPo5+dgZArrhAUvok5FJ5a82R19wGwQ+Dh4znC34pXoifzCx14keCUF77g4H2dSyjUEDBbJfH1tSJOy6AhWQ0LawBsngZADYAaAIEx+HpoIS8IvImlD18K8sw28YW7xS60T6N/1yyEXrgNgFz9J1R5vo/Qo8Ac5PBcXoTghN8xl6P39H+EXrgOgFuXoEp/B7xwSkIzNAA2TwOgBkANgL45vOAXhkec95j6bTg8alHvwh8wG6EH7gJgu51dsHXO9YTeFps4W+jEIVmCE344wMF7eqOGuW3uAqAXmsanDzj3ejyfmNAgDYBN0gCoAVADINsolOTicBnBieX2Hh+evdb9e3RqWNysmtADNwGwuqOHfVTuhmIuIPSKTbUdfebvJIFJ/o9v73VQ/RtKKEgF8L8Ulczn8MJltQKoAdA9DYAaAJfdcyq5OVACkubVothIuQ+Ev5EIzKaEXrgJgNzeTnje1QmEXlXscu7O4U6fIIq/awdVzRE19pqUD4CB2bHEv8WvUOlajFA3DYD50wAoJ2lAfHRJHEHIkGwA5BZuSTuTqES+iG9uBBFx6xnfXkNRC+uOV9oSUogHwKTJ84eFGHblvsuO5swdRxDl2+0cPIxdS6iBcAA0D8mHXXHvx9MgyrsKWAOgBkA1wkUAVOHBBBnmzJb//IIwJNRGvAI4rDjDlOEuztrxSO94E5grpd9HfS2FagiA6vl4i0JCzTQA5k8DoHIaANUPIlMDfLs7RS1ub0LNGAD7zA3FCyeI52Q5eohZhSAifh+e/V56u8G6GrXXGgDVaYQ6aADMnwZA5TYAKvMvQmYqpq3EDZ7lhh7LHwAp3IxQk8Ae5ui4ziJISNrpRMIOIdSongCovHAL0kUg5acBUIgGQPVORs1Uk31C7VsUtbAzGlp92hIVQLs6oSbVtjh2pIPj+iau1AnN/ztN+vjr29GivgCowi/hD5yWkE4DYP40ACr3AVAFXcsTmuaZI1v8s7qq4Tln+QdA96tunS0CMhsSMsWWOvHiLuFjv5cgWQFU5kxCKg2AJaABUIAGQBUeQ2hKEC4tWPHJX2Bvi7c7IzSkFQJgv44FCTVrD1dydP5eTsiW9RzcoLcl1KH+AKi60W4DXQVcfhoAZWgAVG8RGpTs9BE+3sKfz33pqwpTtEQFMJypgWHU55zsC7vUkMkImeEKeeHj/q6hHXkaCYDqQV0EUh4aAFVrB8Dq0JK5M+kdeFbyenPcUDrHm/vchIZwCK4An+vH8Owlo1uVmG34un7SoHkv+PZEerTBCuUTmYSLVgiADQSWpD9h5Lia1jzfvCR8zKcQWmgI+OskaF0NPzyvek0LzE3w7YuF6C0YmJUJPUmaqJ9Sh2/kh67tKc0x/Ql9STkPWgNg6wfAajsJc3jqMFolnDPZT3iY2+Mz2xDqFi8g8e3z+Z0n5iJUTCWes0XoTbKrw3Z0T40X4Zf4nUxDaFJZAmB3PHH+N/YrihIjG1r8wtCYhINI2M2ETPBhSPx4G9u2rGgB8EEek0ndh5fbQVanAwT2qPhBLacpHPcTMuPb1wv3sKVQzoPWANjqAfAe9N9rDkLNeFF1erH3zEmEugV2y9wWZFS65iU0xDfLxPP6eh0Wb+uYmdC84gXApMJ1bHX/6jazaI9D3PEK20rnUvBNZxMPuEc52ZKvzUxHaFpgBgkf63OEklYAu+li+J0LE+rGnofVbSiTCqtTyVzA5mkAlKcBsPw0AHYjCP+RXp3qAW/KcXh0FVIJDXiCIoe+qasfXYpk79Pv/vR/fJg+JF7KPoAjq1tCel1LEJzxO+aCb0c5GObbi9A8e7/waIAlNCTfAPh2ZiEqHjnw7EDHPUPPJTRPA6A8DYDlpgGwG57dgdCU5QZMDd9+4mJeIqEurAy5nztpFydkKn4fv7X8+AJeuAihpQJgvD9vu12S4J6r31/4AKE5A6cVXs0+rKlpBQyAOQ73TknIUnIN+ZAiB37M7D1oAJSnAbDENADuT8gEKxtOjpmNnAk1C+zJDocsf0rmTUFEPDfTt+82WuFIkXMADE+N52ERcuOFqzl56EqmWjSMD23C1b9LCKWqAMZTJZJrg4j4O/Pt+44WuxkNgCWmAbAENAC+keEN191E+nY7O6EWyX6v3zhcRLMnQZRcSMovAAbmP4ScJa2C7MsObvBDm7yxX1PsvYtdB0BeN5P+l6JYdXew73LsqdIOASsNgCWgATCwGxAy5dtT5I87XJpQE97InFYg4gBR3j/5BEAuviAUhm86XQx1ExqRPNT8IHh87zW97aLbAPgsgsGTENwId3P0vhbXAKgBUAOgBkDnT5iNc9Brz+tckVCTwBzkrL9YxcxKKDXXAZALGdK3rXOMYcJN1bihFaoUrit8bHsTmuQqAI50vVgoqRJf7+C3cZi2gSkhDYAloAFwO0LWkh52o4qz2b99xFF7ml0Jpec2AP7c8CpmeccVd/6tOVN0fiJ7fBKa4i4AnkJwjrvN8PVHigQ9oRXAktEAWAIaAD8TnUfm21eE59mtR0jFSo6jfX+fSG+hUxIuA6BnjiQUUlvnPA5awrxR95QBnmfCTYpvJZSkAjgybt1DyAXPX/H3t5ydnNAwDYDyNACWjAbACwliPHut8PFvREjlrP1LuC6hJbgLgKMaXwnriG9voUgUP29CzSqmIns8ZlNC01wEQG7jRsiPmc/BQ9JahAZpABSgAVDWPfFk+nIwNxEy5aYP2S6yIcIeVogAyN0jHKzmfLOhhR+6COQaQqHx5uvgt3hMgX5bn2e2ktZJBdAsQ8iXfarAq8U1AArQAChpmUHTE/osFwHQGzA/QYxvOgsSAP/hfh5XybkKgIFZh1BoDPbS0xnok7oWwcgez9GEkgwBP03InzlBOACergFQA6AGQA2AmRFvtuubrZwHQPeT5ROmP6FluAmAw0pz4/Btl3xfy3AlQjq7gOhxVLoWI2SCATD/ypgDQbit+IiYLgLRAKgBUANgRr4liAo61yhCAKSr5VtQhBMQWoabAHgPoRTiSfjJHsyCziCkYugRPIZHCRkSDoCdPiF3wqGc3tEAqAFQA6AGwKy85WAYcfliDAHb24SP412CDgHX7QhCaXjmJOHP45uaqvK+eag0bYxkA2B3YR68ltplQuFz4ysNgBoANQBqAMzKq30mAHLTfeF2NA8TWoqTABgOIJRFsv9yd66tjdrMdIJtaX6sv91ICtkA+AGhOMxPBeo0oQFQA6AGQA2AGgDpaeHjuEMrgI0wWxHKxd4hHAAvIfTINzsLNlY/h5Ap2QD4LKFA3i/snG0NgBoANQBqAOyjAfB5iorWNFcDYLgZoVRYoRMOxT+hrWNSwt/yw+vKtZBJNAA+RigQ2ZC11JDJCA3RAKgBUAOgBsA+GgAf08UMGgAzsfHGY8U9H4U/m60Jf5bMM/uBIgGvCPSxlP7tPU0okC8oErPQ3uMSGqIBUAOgBkANgH00AN5NUesPRWkAdMMOFh4GvpHwV+H6gtW/IYSSVQDfIhQCt+YT3m5ylM4B1ACoAVADYL00APKGKr56UwNg3wmAld2niCtxshP+B05L+APPni32/wV7zUjInGwAHJHePNsRL5xS+PfygwZADYAaADUA1k8rgJdRJKpiZiW0DA2AKexpFAnanZAYPfTs289KuB2fYACkNrMoIXfJ3szFWvGsAVADoAZADYAaAI92sBfwFoSWoQEwRefCwi1h7iX8xvQv43Z88o2g7Z6E3Mlve/moBkANgBoANQDWTQOg6XQQZi4ntIj0APg/9u4CuHUdjeL4WWZmZmZsLaddZmZm3m0r6fJjZmZmZmZmZmZmZoZPaTWwu6+3TixZcs6d+c28wec0TvOvZEkDH4COOSboJsfD5p0CXcqsEej/c7MsLnmeQBASgAOxBVNptgl8ZvaeAj1jADIAGYAMwIEIwPhH0jkPu2fDBFqAATgj5qeBf0bzBKZcGigsVhLIdQRQPIHRsXcJNEqZi8MGoFlfoEeDGoAMQAYgA5ABqD8QIQCF/fsAjQAyAN0CBGWuDfgzOksApf1IuCnU2R8UCCVCADobCjTok+KppKe6GYAMQAYgA3AgA1CmuCIc5O+c67aDEMgcA3CmSrto2JEf+xGxaMb7V0YIQP2QX8XcCKU3CP4ah00p0DMGIAOQAcgAHMAA9A6OMgpYmD/zLOABCsAvzn5t0DNgS7MslDklzL2qfy8QUKQAFIVeUyA69z2lzIPBp7n7C6zwAdjT4y+U40VnF4AMQAagv2cjuNs/vJ8vBmA1ZquAP6dHA602vsedLCIQULQAFI9g2HxIICqlt4zw2i5M/pi60VlvE6iGcrzozAKQAcgAjBU0nj0d5byXCWSKAVhFMetT7vVkpTQbCwQWMwCFPsmvaI6iY77o4zyowq4n0IfwASjbIglUQzledG4ByABkAPoH9m+M+CV7BD4+5yUCQckUZIAzXBmA1Z2QVwTqzwkEFjMAvbUFwpvzer8AKILvCPQhxirlHwtUQzledGYByABkAHp25chfRqfi8/95jUAQI+OvQ2EvgNKLC9SIAVjdL2NHXAZnV8cPQD9iFnIxlltwosx5kV7Pw7UssFD6zMDXuZRARZTfRUcKwEL/w/1SzVofX/4MwAABODTxPj9lE01pzkFh3yJQq5HxD/u94cQTKPR3BerBAKzIrzS/PpPRvwmBdo4AenpLd3yeQI38llLXRHwt+9f0nX183JNKiAFIhUBvGIA1B6B3dAP3wW0ozA8F+uZGNko9BmXu/e/FJ+7LSaB/DMCelHrJDH4nPeIeGxCIorEAdOzhtW4P4z7DytwROWR/UlOI7x38WuWPUoEKKMuLZgAyAPMNwO80dj8U5igM26/2OD317O5zNsqcPc2XxUUYGn+5QJ8YgNX558IeFk8lbGeB2FPADboDpZ6Lwr5IoCfdUT+7ewPXfis+svTzBfpWmvWjBDfwLLT8H/8xABmA+Qagc2Kj90VhrxSrup/P9KuF3eiFRF+hN6qwgGUfF4vcCLopZvu0V//qrwnE4gOwefbO7rOBpR1xC8IEpiWfy8k/uOx+7hGLhq57DYFaFHZBpP0YN6ry+4dyvGgGIAMw7wD8ckL3yJPimsmtY8xh7gvTLezo6+SSwi4j0AcGYK86E59J+PfRtf65uGh8AKblbnGEC8KpBVQT3VFCZZdDYbaeuuZHGp+q7+i3C9RC2R9EvPZToOzXZxSCbv9Ad8xdab7FVcBcBRwDA5AB6Bza4vvuSRT2RwzAZgQ7uSPPlZq9BSBtIlCf8fc0Mf0u9kJp1kJhloDS87sKsyJKu6tfxNZVWiswcPK8cAYgAzDzACzse/0RTi11Xx+bszIA+6J/m+D98ATU7HcIxMUA7MGjGB17l0BtZDTOzyokah5XAUfAVcAMQAZg5OdiGnzWsMetiBiA/XAP7pf6psTuh4MFchgBJLvOYI1Mi9IuyhHAWDgCyABkAPrTQc5q9T1Y6oN6eO6LAdiv0iyb1h8D+mcC0TEAq7oZXzSvFKidMptFuH5uJM0RQGIANhiA1TeHvqvlEbgS9wGMbMS8yU3lJXIP3I5vjb9AIDoGYDWl+Y1AGPYPCY96LicwcDK86PYEIAOQAeh07Pf8Vg8t9WTF2GIA1sLsnEhUrCXQBAZgBYU5MOg+enK8qj8JKT12ZQZgZAxABiAD0LPLtfzL5X50Zn1CYEYYgP0bNmUS771/3+NjAM7cbW7UWCAoZU9I9PWvwSlgTgE3gwHIAASe5XfLb7GrMTL+OoGFYADWpvEAOkWgQQzAlJ7RLO3P27/wJT6OABIDMOcA9BGozIYtX2F4+AxOQmAA1sb8seH3+++pBzDpFQQi8AvfLk8wgDcSGDgZXnQ7A5AByAAUk/tl6Q1aPtqwpsA0GIB1cYsvlLmloff6Qb+itDEMwNTCxz/z/FRiNuMUMKeAm8UAZAB6pR6DMo+1dqsJ2R+Q+wBGUpgVG3qftxJo9RRwYU5252pnujp/h8bOzS31nmmFsNlaYODkd9FtD0AGIAPQs19v4RYx52HYvFNgGgzAOhX2LY1sCdPRHYFGhQ7A0hw/dcrF3tlt9txU/Dmdf70KylyR0M9ke44AcgQwIQxABqBwB7Irc0hL7sfd8Jn5rxBYCAZg/XaP/F5fAuBZaPpfhAAUQDnvZVDmmAw+g49D2X8LNM98UtyRyAjgLhwB5AhgWhiADEDPrdJT9s5sp3yr/awYgHUr7BcG9GzVSAEo3BF8yuyY8OfwGncfCCTCR+BtCUyH7ykwcPK8cAYgA3DAAtApx948tUDkkUzuvwfEGm66R6ASBmAA5uxI7/tjfk+5xsUMQMdNqxZmCTflntzzfn70PTWjs96GwhzV8AjgvhwB5AhguhiADEDPPUOnzBYJh+CDYm23879ALxiAAZTmr5He/70FBmoE8L8Nm0+7512bn9q0V0LZHwgkzO9+MOGODWzszHKOAHIEMHkMQAag57bYUPbv7ksokfvtEig9H1+c/VqBfjAAAyjsx+Is/rDfE0hCUwHop4QLYxqKmgdQ6iVl370XCmTDjVIqs3z8ZwPt4dwIOh9udeSGC0GjY+8S6Il7KFbZOwM6XSCoju4EfQ2l/r5AErpf7npxKHOieDziCMMFYtXaV3y6e1eZTcLSnxMYHBGOGyz1TX6j7wQ0G4Ce/KE2FTXXRfhM3oDSLur/CMvWx+e8BMr8C0qfFPj84GvFZij11zgCSET5c3vslfoX3Q2XlTnWncNb0y/LJ8T5k9PP+m9+OxfKAPAsNx0Y4VmqFQVS0XwA/tfzgaUdcUc+1nwaxm1ix+5n/jN/f55AqwyNv3Vq5fJ2UObiPoLwYXGe2ET8EaX+gEB7MQCJ6Gc/ew6GzYdQ6O+iMP+Z3LhW74TSHAZljpscjTWXicun/vtYcbDYqjuNpPRvUUwoDI2/XICyE+NxCOdJDE28TyAZ0QOwgu7iB/37ySC0h89whPBmcTSU3VTMRmk/6/fzGxhf/PdLUdqPoLDfhLJ/Qqnndh89UXblSWax7vOEhflzd5amM/EZDOk3CNB/afkLJCIiifkIAXi0QGLiB2A/3NF9I+OvQ8e+24WL/PeHuyPtbiW9e6bwI0+3dw+wstxRAIdPbbsN6rDmzq0R1ratnalt2whr221s1rZtG+f5heXu/c/ud5Mvd63oNzwnxv8G/AgAA2yFvWaMqv66DwG4owBsD/ADDDaA7fsQf1+OCc0UBRnSAAQBCEBVP9r7gz+6V6QozBAGIAhAADrNQn05LVAejJCiOAIQhi0AARh/KqA/euzpFKPMPoAgAAEYO4+3qr/vfQB2D0pRJgEIQxWAADS39mHt309FT50QgDA8AQhAd+s+xF/q3pRiNFkDCAIQgDyB8ITxfz03cvCqKQo1BAEIAhCAMeP+qubzvsRf+fHTkgAEAQjA2MH39S6xxgGLpPhbqroTVXP7hEH5fQrAzVL8VwIQBCAAVffxySLjrXRz3n5yBt5e+X+PsQPwq/rg/H9KjHTvzMsfpj/67NXYcsupUhSsJQEIAhCAqv4i/VG0Tr1/iuIJQBCAAMVbq5699PhLH8fSh86UongCEAQgQPE6By9X/tq/5sgUrSAAQQACFK/TbFp4AH4WI4fPkqIVBCAIQIDiVfXBZQdg99gU/x8nggYBCCAALy44AL8cs49iitYQgCAAAYrXqe8tOAAPTNEyAhAEIEDhqvqZQk/78mBETBFt+xOAIAABilfVXxcYgO/GWofMnaJ1BCAIQICirX7gPAXG32/ROWjdFK0kAEEAAhSt6q5U4Kbf41L0hEkgIAABaLYqLACv7+V+f/YBBAEIQFUfXtCavztihb2mSdFqAhAEIEDhAXh5IQF4cz/iTwCCAASgUz842gd8pBNjyy2nSjEQBCAUHYAAVN0XRjH+3o6R7vopBooAhGIDEICIKaKqv+9/+HV/SKfF0ofOlGLgCEAoNgABWL1eoM/x902+7zlj3jfFwBKAUG4AAnDwqn0Kvxej6h4UKxwxW4qBJwCh6AAEYLWDVoiqPiY69b3RaV4fe1DGfwuUn9ITMVJfk9G3Z3SaxVMMFQEIrQpAADrNDFHVy8ZqzYb5f5eomkMyDk/P/2fm/RfkbVfl/0vHXq/qE/O+Q/P/jjFy8Nqx2sFLxlonTp1iqAlAEIAADF1ErxyrNuv1zEizYopWAj8CAIAABABAAAIAIAABABCAAAAIQAAABCAAAAIQAAABCACAAAQAQAACACAAAQAQgAAACEAAAAEIAIAABABAAAIAIAABABCAAAAIQAAABCAAAAIQAAABCACAAAQAQAACACAAAQAQgAAACEAAAAEIAIAABABAAAIAIAABABCAAAAIQAAABCAAAAIQAAABCACAAAQAQAACACAAAQAQgAAAAhAAAAEIAIAABABAAAIAIAABABCAAAAIQAAABCAAAAIQAAABCACAAAQAQAACACAAAQAQgAAAAhAAAAEIAIAABABAAAIAIAABABCAAAAIQAAABCAAAAIQAAABCACAAAQAQAACADBMAQgAgAAEAOBPu+YOJ4pkW50AAAAASUVORK5CYII=;imageBorder=default;" vertex="1" parent="1">
          <mxGeometry x="319" y="-75" width="72.73" height="60" as="geometry" />
        </mxCell>
        <mxCell id="Srsy9CeiOtQ16fyAPg-G-15" value="" style="endArrow=none;html=1;rounded=0;entryX=0.5;entryY=1;entryDx=0;entryDy=0;" edge="1" parent="1" target="Srsy9CeiOtQ16fyAPg-G-14">
          <mxGeometry width="50" height="50" relative="1" as="geometry">
            <mxPoint x="586" y="50" as="sourcePoint" />
            <mxPoint x="586.13" y="-10" as="targetPoint" />
            <Array as="points">
              <mxPoint x="530" y="30" />
              <mxPoint x="356" y="20" />
            </Array>
          </mxGeometry>
        </mxCell>
        <mxCell id="Srsy9CeiOtQ16fyAPg-G-16" value="" style="endArrow=none;html=1;rounded=0;entryX=0.5;entryY=1;entryDx=0;entryDy=0;" edge="1" parent="1" target="Srsy9CeiOtQ16fyAPg-G-12">
          <mxGeometry width="50" height="50" relative="1" as="geometry">
            <mxPoint x="570" y="40" as="sourcePoint" />
            <mxPoint x="596" y="-30" as="targetPoint" />
            <Array as="points">
              <mxPoint x="570" y="20" />
            </Array>
          </mxGeometry>
        </mxCell>
        <mxCell id="Srsy9CeiOtQ16fyAPg-G-9" value="Internet" style="image;aspect=fixed;perimeter=ellipsePerimeter;html=1;align=center;shadow=0;dashed=0;spacingTop=3;image=img/lib/active_directory/internet_cloud.svg;" vertex="1" parent="1">
          <mxGeometry x="551" y="34" width="50" height="31.5" as="geometry" />
        </mxCell>
        <mxCell id="Srsy9CeiOtQ16fyAPg-G-17" value="K3s" style="image;sketch=0;aspect=fixed;html=1;points=[];align=center;fontSize=12;image=img/lib/mscae/Kubernetes.svg;" vertex="1" parent="1">
          <mxGeometry x="516" y="370" width="50" height="48" as="geometry" />
        </mxCell>
      </root>
    </mxGraphModel>
  </diagram>
  <diagram id="8V01zvS6GuwHVrc7pnHC" name="Namespaces">
    <mxGraphModel dx="1562" dy="909" grid="1" gridSize="10" guides="1" tooltips="1" connect="1" arrows="1" fold="1" page="1" pageScale="1" pageWidth="850" pageHeight="1100" math="0" shadow="0">
      <root>
        <mxCell id="0" />
        <mxCell id="1" parent="0" />
      </root>
    </mxGraphModel>
  </diagram>
</mxfile>
